<?xml version="1.0" encoding="utf-8"?>

<!DOCTYPE svg PUBLIC "-//W3C//DTD SVG 1.1//EN" "http://www.w3.org/Graphics/SVG/1.1/DTD/svg11.dtd">
<!-- Uploaded to: SVG Repo, www.svgrepo.com, Generator: SVG Repo Mixer Tools -->
<svg version="1.1" id="_x32_" xmlns="http://www.w3.org/2000/svg" xmlns:xlink="http://www.w3.org/1999/xlink" 
	 viewBox="0 0 512 512"  xml:space="preserve">
<style type="text/css">
	.st0{fill:#000000;}
</style>
<g>
	<rect x="200.126" y="217.817" class="st0" width="210.525" height="53.336"/>
	<rect x="200.126" y="310.345" class="st0" width="48.59" height="24.599"/>
	<rect x="362.07" y="310.345" class="st0" width="48.582" height="24.599"/>
	<rect x="281.098" y="310.345" class="st0" width="48.589" height="24.599"/>
	<rect x="200.126" y="361.359" class="st0" width="48.59" height="24.6"/>
	<rect x="362.07" y="361.359" class="st0" width="48.582" height="24.6"/>
	<rect x="281.098" y="361.359" class="st0" width="48.589" height="24.6"/>
	<rect x="200.126" y="412.36" class="st0" width="48.59" height="24.614"/>
	<rect x="362.07" y="412.36" class="st0" width="48.582" height="24.614"/>
	<rect x="281.098" y="412.36" class="st0" width="48.589" height="24.614"/>
	<path class="st0" d="M419.372,98.972h-6.518V0H198.073v98.972h-25.582h-53.516h-37.36c-42.272,0-76.663,34.391-76.663,76.663
		v259.702C4.952,477.608,39.343,512,81.615,512h37.36h53.516h246.88c48.344,0,87.676-39.332,87.676-87.676v-237.67
		C507.048,138.304,467.716,98.972,419.372,98.972z M220.931,22.858h169.064v137.15H220.931V22.858z M134.394,473.903H81.615
		c-21.303,0-38.566-17.255-38.566-38.566V175.635c0-21.311,17.263-38.566,38.566-38.566h52.778V473.903z M468.951,424.324
		c0,27.382-22.189,49.578-49.579,49.578H157.073V137.069h41v45.798h214.781v-11.429v-34.369h6.518
		c27.39,0,49.579,22.189,49.579,49.586V424.324z"/>
	<rect x="247.599" y="51.432" class="st0" width="117.968" height="15.239"/>
	<rect x="247.599" y="93.338" class="st0" width="70.346" height="15.239"/>
</g>
</svg>