<?xml version="1.0" encoding="utf-8"?><!-- Uploaded to: SVG Repo, www.svgrepo.com, Generator: SVG Repo Mixer Tools -->
<svg version="1.1" id="Uploaded to svgrepo.com" xmlns="http://www.w3.org/2000/svg" xmlns:xlink="http://www.w3.org/1999/xlink" 
	 width="40" height="40" viewBox="0 0 32 32" xml:space="preserve">
<style type="text/css">
	.puchipuchi_een{fill:#111918;}
</style>
<path class="puchipuchi_een" d="M26,1H6C4.9,1,4,1.9,4,3v26c0,1.1,0.9,2,2,2h20c1.1,0,2-0.9,2-2V3C28,1.9,27.1,1,26,1z M10,23
	c-0.552,0-1-0.448-1-1c0-0.552,0.448-1,1-1s1,0.448,1,1C11,22.552,10.552,23,10,23z M10,19c-0.552,0-1-0.448-1-1
	c0-0.552,0.448-1,1-1s1,0.448,1,1C11,18.552,10.552,19,10,19z M10,15c-0.552,0-1-0.448-1-1c0-0.552,0.448-1,1-1s1,0.448,1,1
	C11,14.552,10.552,15,10,15z M10,11c-0.552,0-1-0.448-1-1c0-0.552,0.448-1,1-1s1,0.448,1,1C11,10.552,10.552,11,10,11z M22,23h-8
	c-0.552,0-1-0.448-1-1s0.448-1,1-1h8c0.552,0,1,0.448,1,1S22.552,23,22,23z M22,19h-8c-0.552,0-1-0.448-1-1s0.448-1,1-1h8
	c0.552,0,1,0.448,1,1S22.552,19,22,19z M22,15h-8c-0.552,0-1-0.448-1-1s0.448-1,1-1h8c0.552,0,1,0.448,1,1S22.552,15,22,15z M22,11
	h-8c-0.552,0-1-0.448-1-1s0.448-1,1-1h8c0.552,0,1,0.448,1,1S22.552,11,22,11z"/>
</svg>