<?xml version="1.0" encoding="utf-8"?><!-- Uploaded to: SVG Repo, www.svgrepo.com, Generator: SVG Repo Mixer Tools -->
<svg version="1.1" id="Uploaded to svgrepo.com" xmlns="http://www.w3.org/2000/svg" xmlns:xlink="http://www.w3.org/1999/xlink" 
	 width="800px" height="800px" viewBox="0 0 32 32" xml:space="preserve">
<style type="text/css">
	.puchipuchi_een{fill:#111918;}
</style>
<path class="puchipuchi_een" d="M5,28h22.721c-0.348,0.594-0.986,1-1.721,1H5c-2.2,0-4-1.8-4-4V9c0-0.735,0.406-1.373,1-1.721V25
	C2,26.654,3.346,28,5,28z M20,7c0.553,0,1-0.448,1-1V3c0-0.552-0.447-1-1-1s-1,0.448-1,1v3C19,6.552,19.447,7,20,7z M26,7
	c0.553,0,1-0.448,1-1V3c0-0.552-0.447-1-1-1s-1,0.448-1,1v3C25,6.552,25.447,7,26,7z M14,7c0.553,0,1-0.448,1-1V3
	c0-0.552-0.447-1-1-1s-1,0.448-1,1v3C13,6.552,13.447,7,14,7z M8,7c0.553,0,1-0.448,1-1V3c0-0.552-0.447-1-1-1S7,2.448,7,3v3
	C7,6.552,7.447,7,8,7z M31,6v19c0,1.1-0.9,2-2,2H5c-1.1,0-2-0.9-2-2V6c0-1.1,0.9-2,2-2h1v2c0,1.103,0.897,2,2,2s2-0.897,2-2V4h2v2
	c0,1.103,0.897,2,2,2s2-0.897,2-2V4h2v2c0,1.103,0.897,2,2,2s2-0.897,2-2V4h2v2c0,1.103,0.897,2,2,2s2-0.897,2-2V4h1
	C30.1,4,31,4.9,31,6z M13.503,20c0.34-0.429,0.798-0.887,1.204-1.293C15.834,17.58,17,16.414,17,15c0-2.201-1.794-3-3-3
	s-3,0.799-3,3c0,0.552,0.448,1,1,1s1-0.448,1-1c0-0.805,0.55-0.988,0.988-1C14.45,14.012,15,14.195,15,15
	c0,0.586-0.947,1.532-1.707,2.293C12.166,18.42,11,19.586,11,21c0,0.552,0.448,1,1,1h4c0.552,0,1-0.448,1-1s-0.448-1-1-1H13.503z
	 M23.22,17c0.48-0.532,0.78-1.229,0.78-2c0-1.654-1.346-3-3-3s-3,1.346-3,3c0,0.552,0.448,1,1,1s1-0.448,1-1c0-0.551,0.449-1,1-1
	s1,0.449,1,1s-0.449,1-1,1c-0.09,0-0.142,0.015-0.181,0.036C20.357,16.124,20,16.512,20,17c0,0.49,0.359,0.878,0.823,0.964
	C20.862,17.985,20.914,18,21,18c0.551,0,1,0.449,1,1s-0.449,1-1,1s-1-0.449-1-1c0-0.552-0.448-1-1-1s-1,0.448-1,1
	c0,1.654,1.346,3,3,3s3-1.346,3-3C24,18.229,23.699,17.532,23.22,17z"/>
</svg>